<svg xmlns="http://www.w3.org/2000/svg" viewBox="0 0 500 500"><defs><style></style></defs><path d="M250,25.59C126.26,25.59,25.59,126.26,25.59,250S126.26,474.41,250,474.41,474.41,373.74,474.41,250,373.74,25.59,250,25.59Zm0,419.68c-107.67,0-195.27-87.6-195.27-195.27S142.33,54.73,250,54.73,445.27,142.33,445.27,250,357.67,445.27,250,445.27Z"/><path class="cls-1" d="M197.54,159.71A14.57,14.57,0,0,0,183,174.28V325.72a14.57,14.57,0,0,0,29.14,0V174.28A14.57,14.57,0,0,0,197.54,159.71Z"/><path class="cls-1" d="M302.46,159.71a14.57,14.57,0,0,0-14.57,14.57V325.72a14.57,14.57,0,0,0,29.14,0V174.28A14.57,14.57,0,0,0,302.46,159.71Z"/></svg>