<svg xmlns="http://www.w3.org/2000/svg" viewBox="0 0 500 500"><defs><style></style></defs><path d="M250,25.59C126.26,25.59,25.59,126.26,25.59,250S126.26,474.41,250,474.41,474.41,373.74,474.41,250,373.74,25.59,250,25.59Zm0,419.68c-107.67,0-195.27-87.6-195.27-195.27S142.33,54.73,250,54.73,445.27,142.33,445.27,250,357.67,445.27,250,445.27Z"/><path class="cls-1" d="M315.58,169.85H184.42a14.58,14.58,0,0,0-14.57,14.57V315.58a14.58,14.58,0,0,0,14.57,14.57H315.58a14.58,14.58,0,0,0,14.57-14.57V184.42A14.58,14.58,0,0,0,315.58,169.85ZM301,301H199V199H301Z"/></svg>