<svg xmlns="http://www.w3.org/2000/svg" viewBox="0 0 500 500"><defs><style></style></defs><path d="M250,25.59C126.26,25.59,25.59,126.26,25.59,250S126.26,474.41,250,474.41,474.41,373.74,474.41,250,373.74,25.59,250,25.59Zm0,419.68c-107.67,0-195.27-87.6-195.27-195.27S142.33,54.73,250,54.73,445.27,142.33,445.27,250,357.67,445.27,250,445.27Z"/><path class="cls-1" d="M343.17,248.61c-.05-.47-.15-.93-.24-1.4a12.91,12.91,0,0,0-.31-1.37c-.13-.43-.3-.84-.47-1.26a14.14,14.14,0,0,0-.64-1.43c-.08-.14-.12-.29-.2-.44s-.33-.43-.48-.66a14.26,14.26,0,0,0-.92-1.28,13.59,13.59,0,0,0-1-1c-.33-.33-.66-.65-1-.95s-.85-.63-1.29-.92c-.23-.15-.42-.34-.66-.48L204.83,161.66c-.24-.14-.5-.21-.75-.33a14.61,14.61,0,0,0-1.45-.66c-.44-.16-.88-.29-1.32-.41a13.27,13.27,0,0,0-1.39-.31,13.57,13.57,0,0,0-1.55-.16c-.28,0-.55-.08-.83-.08s-.32,0-.49,0a13,13,0,0,0-1.52.15,12.06,12.06,0,0,0-1.36.23c-.45.1-.87.26-1.31.4s-.92.31-1.36.51-.8.42-1.2.65-.82.47-1.21.74-.72.59-1.08.89a13.71,13.71,0,0,0-1,1,11.91,11.91,0,0,0-.85,1,13,13,0,0,0-.92,1.28c-.09.13-.2.24-.28.38s-.21.5-.34.75c-.23.47-.46.94-.65,1.44s-.29.89-.41,1.34-.23.9-.31,1.37a14.09,14.09,0,0,0-.16,1.58c0,.27-.08.53-.08.81V325.72c0,.28.06.54.08.81a14.09,14.09,0,0,0,.16,1.58c.08.46.19.92.31,1.37s.25.89.41,1.34.42,1,.65,1.44c.13.25.2.5.34.75s.24.35.36.53l.4.6a13.54,13.54,0,0,0,1.48,1.79.52.52,0,0,0,.1.11,13.41,13.41,0,0,0,1.94,1.6,5.14,5.14,0,0,0,.49.32,13.1,13.1,0,0,0,1.91,1l.36.18a14.66,14.66,0,0,0,2.36.73l.62.12a14.26,14.26,0,0,0,2.61.26,14.54,14.54,0,0,0,2.62-.26l.56-.11a14.92,14.92,0,0,0,2.41-.75l.33-.16c.46-.21.91-.41,1.36-.67l131-75.64.06,0,.08,0,.08-.06a15.36,15.36,0,0,0,2.05-1.47l.43-.38a13.76,13.76,0,0,0,1.72-1.85c.08-.12.15-.24.23-.35a14.43,14.43,0,0,0,.82-1.22c.08-.15.12-.3.2-.44a14.14,14.14,0,0,0,.64-1.43c.17-.42.34-.83.47-1.26a12.91,12.91,0,0,0,.31-1.37c.09-.47.19-.93.24-1.4s0-.92,0-1.39S343.21,249.07,343.17,248.61ZM212.11,199.52,299.55,250l-87.44,50.48Z"/></svg>